<svg viewBox="0 0 103 91" fill="none" xmlns="http://www.w3.org/2000/svg" aria-label="Midea">
  <path d="M94.4 32.1H86.5C85.6 32.1 85.8 32.9 85.8 32.9C85.9 33.9 86.2 35.6 86.2 39.1C86.2 46.9 85.3 58 76.8 68.6L76.2 69.3C76.2 69.3 71.1 33.6 71 32.9C71 32.9 71 32.1 70.3 32.1H62.3C61.6 32.1 61.6 32.9 61.6 32.9C61.4 37 59.1 71.4 34.1 76.9C39.4 77.5 45.9 75.8 51.5 72.3C58.4 68 63.1 61.6 64.7 54.3C64.7 54.3 67.8 73.4 68.2 77.9V78.2L68 78.3C61 82.1 53 84 45 84C25.2 84 7.7 72.3 0 54.5C4.5 75.5 23.2 90.8 45.2 90.8C70.8 90.8 85.9 69.4 88.6 54.2C88.6 54.2 92 76.4 92.1 77.1H102.6C102.5 76.1 95.5 33.6 95.4 32.9C95.1 32.9 95.1 32.1 94.4 32.1ZM6 50.8C6 27.4 25.7 8.4 50 8.4C65 8.4 79 15.9 87.1 28.1C81.2 11.4 64.7 0 46.1 0C22.2 0 2.7 18.6 2.7 41.6C2.7 47.9 4.3 54 7.1 59.6C6.4 56.7 6 53.8 6 50.8Z" fill="currentColor"/>
</svg>
